<svg xmlns="http://www.w3.org/2000/svg" xmlns:xlink="http://www.w3.org/1999/xlink" viewBox="0 0 48 48" version="1.1">
<g id="surface1">
<path style=" fill:#90CAF9;" d="M 40 45 L 8 45 L 8 5.839844 C 8 4.230469 9.296875 3 10.890625 3 L 37.113281 3 C 38.703125 3 40 4.230469 40 5.839844 Z "/>
<path style=" fill:#64B5F6;" d="M 8 43 L 40 43 L 40 45 L 8 45 Z "/>
<path style=" fill:#1565C0;" d="M 14 7 L 21 7 L 21 13 L 14 13 Z "/>
<path style=" fill:#1565C0;" d="M 27 7 L 34 7 L 34 13 L 27 13 Z "/>
<path style=" fill:#1565C0;" d="M 14 16 L 21 16 L 21 22 L 14 22 Z "/>
<path style=" fill:#1565C0;" d="M 27 16 L 34 16 L 34 22 L 27 22 Z "/>
<path style=" fill:#1565C0;" d="M 14 25 L 21 25 L 21 31 L 14 31 Z "/>
<path style=" fill:#1565C0;" d="M 27 25 L 34 25 L 34 31 L 27 31 Z "/>
<path style=" fill:#1565C0;" d="M 14 34 L 21 34 L 21 40 L 14 40 Z "/>
<path style=" fill:#1565C0;" d="M 27 34 L 34 34 L 34 45 L 27 45 Z "/>
</g>
</svg>