<svg xmlns="http://www.w3.org/2000/svg" xmlns:xlink="http://www.w3.org/1999/xlink" viewBox="0 0 48 48" version="1.1">
<g id="surface1">
<path style=" fill:#70aa4b;" d="M 43 24 C 43 34.492188 34.492188 43 24 43 C 13.507813 43 5 34.492188 5 24 C 5 13.507813 13.507813 5 24 5 C 34.492188 5 43 13.507813 43 24 Z "/>
<path style=" fill:#FFFFFF;" d="M 20 35 L 17 35 L 17 13 L 27 13 C 30.308594 13 33 15.691406 33 19 C 33 22.308594 30.308594 25 27 25 L 20 25 Z M 20 22 L 27 22 C 28.652344 22 30 20.652344 30 19 C 30 17.347656 28.652344 16 27 16 L 20 16 Z "/>
<path style=" fill:#FFFFFF;" d="M 15 28 L 25 28 L 25 31 L 15 31 Z "/>
</g>
</svg>